<svg width="162" height="176" xmlns="http://www.w3.org/2000/svg">
  <defs/>
  <g fill="#FFF" fill-rule="nonzero">
    <path d="M18.92 155.437h104.566l-4.994-16.17 11.946 10.252 10.949 9.812L161.333 176V18.15C160.835 8.338 152.387 0 141.915 0L18.957.022C8.492.022 0 8.375 0 18.187V137.28c0 10.347 8.477 18.157 18.92 18.157zM40.311 50.981c13.442-9.782 25.902-9.313 25.902-9.313l1.004.99C50.77 46.581 43.311 53.929 43.311 53.929s1.994-.975 5.478-2.464c22.154-8.712 46.346-8.081 68.742 2.948 0 0-7.472-6.871-22.909-11.271l1.364-1.342c2.134.007 13.427.403 25.513 9.24 0 0 13.522 23.1 13.522 51.48-.447-.543-8.389 12.217-28.827 12.657 0 0-3.461-3.916-5.925-7.333 11.953-3.432 16.426-10.296 16.426-10.296-3.923 2.471-7.502 3.938-10.406 5.405-4.466 1.965-8.939 2.933-13.405 3.923-21.15 3.432-33.022-2.31-44.242-6.864l-3.835-1.95s4.466 6.863 15.942 10.295c-3.014 3.44-5.998 7.348-5.998 7.348-20.431-.484-27.882-13.244-27.882-13.244 0-28.424 13.442-51.48 13.442-51.48z"/>
    <path d="M97.592 93.654c5.214 0 9.46-4.4 9.46-9.827 0-5.39-4.224-9.79-9.46-9.79v.022c-5.192 0-9.445 4.386-9.46 9.812 0 5.383 4.246 9.783 9.46 9.783zM63.727 93.654c5.214 0 9.46-4.4 9.46-9.827 0-5.39-4.217-9.79-9.431-9.79l-.03.022c-5.213 0-9.46 4.386-9.46 9.812 0 5.383 4.247 9.783 9.46 9.783z"/>
  </g>
</svg>
