<?xml version="1.0" encoding="UTF-8"?>
<svg width="290px" height="140px" viewBox="0 0 290 140" version="1.1" xmlns="http://www.w3.org/2000/svg" xmlns:xlink="http://www.w3.org/1999/xlink">
    <!-- Generator: Sketch 63.1 (92452) - https://sketch.com -->
    <title>IDX</title>
    <desc>Created with Sketch.</desc>
    <g id="Page-1" stroke="none" stroke-width="1" fill="none" fill-rule="evenodd">
        <path d="M32,140 L32,0 L0,0 L0,140 L32,140 Z M112,140 C150.6,140 180,109.6 180,70 C180,30.4 150.6,0 112,0 L56,0 L56,140 L112,140 Z M112,109.2 L88,109.2 L88,30.8 L112,30.8 C134,30.8 149.2,46 149.2,70 C149.2,94 134,109.2 112,109.2 Z M208.4,0 L230,37 L230.414,37.71 L253.674751,7.10542736e-15 L290,7.10542736e-15 L247.702,67.348 L248.2,68.2 L290,140 L253.6,140 L230,99.6 L206.4,140 L170,140 L211.8,68.2 L172,0 L208.4,0 Z M32,31 L32,61 L0,61 L0,31 L32,31 Z M88,31 L88,61 L56,61 L56,31 L88,31 Z" id="IDX" fill="#FFFFFF" fill-rule="nonzero"></path>
    </g>
</svg>